<?xml version="1.0" standalone="no"?>
<!DOCTYPE svg PUBLIC "-//W3C//DTD SVG 20010904//EN"
 "http://www.w3.org/TR/2001/REC-SVG-20010904/DTD/svg10.dtd">
<svg version="1.0" xmlns="http://www.w3.org/2000/svg"
 width="588.000000pt" height="588.000000pt" viewBox="0 0 588.000000 588.000000"
 preserveAspectRatio="xMidYMid meet">
<metadata>
Created by potrace 1.11, written by Peter Selinger 2001-2013
</metadata>
<g transform="translate(0.000000,588.000000) scale(0.100000,-0.100000)"
fill="#000000" stroke="none">
<path d="M1687 5111 c-658 -236 -1200 -431 -1203 -434 -8 -8 357 -3169 370
-3195 8 -16 316 -192 1030 -587 l1019 -565 1043 577 c993 549 1043 578 1048
607 14 84 398 3177 395 3180 -9 8 -2478 846 -2491 845 -7 0 -552 -193 -1211
-428z m1771 -946 c303 -649 699 -1496 881 -1883 l329 -704 -296 7 c-163 4
-299 9 -303 11 -3 1 -88 194 -188 427 l-184 425 -757 0 -758 1 -169 -422 -169
-422 -195 -8 c-106 -4 -248 -6 -314 -5 l-120 3 844 1878 c464 1032 845 1876
846 1875 1 -2 250 -534 553 -1183z"/>
<path d="M2656 3549 c-136 -325 -246 -592 -244 -595 3 -2 243 -3 535 -2 l529
3 -280 587 c-155 323 -283 589 -286 592 -3 2 -117 -261 -254 -585z"/>
</g>
</svg>
